<?xml version="1.0" encoding="iso-8859-1"?>
<!-- Uploaded to: SVG Repo, www.svgrepo.com, Generator: SVG Repo Mixer Tools -->
<svg version="1.1" id="Layer_1" xmlns="http://www.w3.org/2000/svg" xmlns:xlink="http://www.w3.org/1999/xlink" 
	 viewBox="0 0 512.001 512.001" xml:space="preserve">
<polyline style="fill:#F4C063;" points="221.395,241.421 221.395,165.419 141.412,165.419 141.412,241.421 "/>
<polyline style="fill:#D5A03C;" points="170.087,241.421 170.087,165.419 141.412,165.419 141.412,241.421 "/>
<ellipse style="fill:#EC589B;" cx="63.655" cy="129.193" rx="54.208" ry="45.323"/>
<path style="fill:#D3468D;" d="M40.144,129.195c0-20.572,16.399-37.932,38.86-43.467c-4.868-1.199-10.015-1.854-15.348-1.854
	c-29.938,0-54.208,20.291-54.208,45.321s24.27,45.321,54.208,45.321c5.332,0,10.479-0.654,15.348-1.854
	C56.542,167.127,40.144,149.767,40.144,129.195z"/>
<rect x="155.629" y="98.432" style="fill:#F4C063;" width="51.542" height="66.984"/>
<rect x="155.629" y="98.432" style="fill:#D5A03C;" width="20.38" height="66.984"/>
<path style="fill:#EAA0E3;" d="M114.758,503.109h133.283c44.833-23.873,75.357-71.074,75.357-125.41
	c0-78.423-63.575-141.998-141.998-141.998S39.402,299.275,39.402,377.698C39.402,432.035,69.927,479.236,114.758,503.109z"/>
<path style="fill:#D57CD4;" d="M181.403,235.697c-45.454,0-82.293,63.583-82.293,142.002c0,54.341,17.679,101.536,43.665,125.413
	h-28.024c-44.826-23.876-75.35-71.072-75.35-125.413C39.402,299.281,102.973,235.697,181.403,235.697z"/>
<rect x="294.254" y="174.303" style="fill:#4D4D4D;" width="208.298" height="328.805"/>
<rect x="294.254" y="8.887" style="fill:#F4C063;" width="208.298" height="131.657"/>
<rect x="334.423" y="140.544" style="fill:#333333;" width="127.972" height="33.769"/>
<rect x="338.866" y="248.065" style="fill:#E6E6E6;" width="119.085" height="181.282"/>
<path d="M227.465,475.909c1.008,0.369,2.039,0.544,3.054,0.544c3.625,0,7.029-2.234,8.347-5.836
	c9.726-26.58,14.866-58.711,14.866-92.918c0-39.109-6.856-76.017-19.304-103.924c-2-4.483-7.254-6.496-11.737-4.496
	c-4.483,1.999-6.495,7.254-4.496,11.737c11.455,25.68,17.762,60.015,17.762,96.684c0,31.687-4.895,62.518-13.784,86.811
	C220.486,469.12,222.856,474.223,227.465,475.909z"/>
<path d="M125.819,318.087c3.993,0,7.623-2.71,8.622-6.761c2.749-11.145,6.171-21.343,10.17-30.31
	c1.999-4.483-0.013-9.738-4.496-11.737c-4.483-2-9.737,0.013-11.737,4.496c-4.428,9.927-8.195,21.13-11.195,33.295
	c-1.175,4.766,1.735,9.581,6.501,10.757C124.399,318.003,125.115,318.087,125.819,318.087z"/>
<path d="M111.175,340.725c-1.401,12.015-2.112,24.456-2.112,36.974c0,34.209,5.14,66.341,14.866,92.918
	c1.318,3.602,4.722,5.836,8.347,5.836c1.014,0,2.046-0.174,3.054-0.544c4.609-1.686,6.979-6.791,5.292-11.4
	c-8.889-24.291-13.784-55.122-13.784-86.811c0-11.834,0.669-23.581,1.992-34.916c0.568-4.875-2.923-9.287-7.798-9.856
	C116.159,332.358,111.744,335.85,111.175,340.725z"/>
<path d="M502.554,149.426c4.909,0,8.887-3.979,8.887-8.887V8.887c0-4.908-3.978-8.887-8.887-8.887h-30.309
	c-4.909,0-8.887,3.979-8.887,8.887s3.978,8.887,8.887,8.887h21.422v113.879h-31.281H334.42h-31.282V17.774h140.669
	c4.909,0,8.887-3.979,8.887-8.887S448.716,0,443.807,0H294.251c-4.909,0-8.887,3.979-8.887,8.887v131.653
	c0,4.908,3.978,8.887,8.887,8.887h31.282v15.995h-31.282c-4.909,0-8.887,3.979-8.887,8.887v94.019
	c-15.854-15.154-34.607-26.506-55.083-33.473v-69.436c0-4.908-3.979-8.887-8.887-8.887h-5.333V98.434
	c0-4.908-3.979-8.887-8.887-8.887h-51.542c-4.908,0-8.887,3.979-8.887,8.887v21.874h-20.858
	c-4.952-25.676-30.966-45.321-62.232-45.321c-34.791,0-63.095,24.317-63.095,54.208s28.306,54.208,63.095,54.208
	c31.267,0,57.281-19.645,62.232-45.321h20.858v18.451h-5.333c-4.908,0-8.887,3.979-8.887,8.887v69.522
	C73.242,255.295,30.515,311.599,30.515,377.7c0,27.88,7.669,55.119,22.178,78.773c1.678,2.735,4.595,4.242,7.584,4.242
	c1.584,0,3.189-0.423,4.638-1.313c4.184-2.567,5.496-8.039,2.929-12.221c-12.792-20.856-19.555-44.882-19.555-69.479
	c0-73.4,59.716-133.115,133.115-133.115c40.829,0,78.545,18.196,103.961,50.017v166.2c-10.836,13.535-24.433,25.024-39.579,33.423
	H117.019c-11.704-6.48-22.342-14.667-31.647-24.357c-3.4-3.541-9.023-3.654-12.565-0.255c-3.541,3.4-3.654,9.026-0.255,12.565
	c11.115,11.576,23.911,21.258,38.034,28.778c1.286,0.685,2.721,1.043,4.177,1.043h133.281c1.457,0,2.892-0.358,4.178-1.044
	c12.019-6.403,23.219-14.521,33.142-23.951v16.104c0,4.908,3.978,8.887,8.887,8.887h208.303c4.909,0,8.887-3.979,8.887-8.887
	V174.308c0-4.908-3.978-8.887-8.887-8.887h-31.281v-15.995h31.281V149.426z M63.655,165.629c-24.99,0-45.321-16.344-45.321-36.434
	s20.332-36.434,45.321-36.434s45.321,16.344,45.321,36.434S88.645,165.629,63.655,165.629z M164.519,107.321h33.768v49.211h-33.768
	V107.321z M150.299,230.043v-55.737h5.333h51.542h5.333v55.692c-10.1-2.099-20.509-3.186-31.104-3.186
	C170.743,226.812,160.34,227.93,150.299,230.043z M493.667,494.223H303.138V183.195h31.282h127.965h31.281v311.028H493.667z
	 M453.498,165.421H343.307v-15.995h110.191V165.421z"/>
<path d="M338.863,239.179c-4.909,0-8.887,3.979-8.887,8.887V429.35c0,4.908,3.978,8.887,8.887,8.887h119.079
	c4.909,0,8.887-3.979,8.887-8.887V311.158c0-4.908-3.978-8.887-8.887-8.887c-4.909,0-8.887,3.979-8.887,8.887v109.305H347.75
	V256.953h101.305v24.584c0,4.908,3.978,8.887,8.887,8.887c4.909,0,8.887-3.979,8.887-8.887v-33.471c0-4.908-3.978-8.887-8.887-8.887
	H338.863z"/>
</svg>